<svg xmlns="http://www.w3.org/2000/svg"  viewBox="0 0 24 24" width="24" height="24">
    <rect width="14" height="14" x="5" y="5" fill="#FFFFFF"/>
    <path fill="#6274BC" d="M -0.014 3.522 L -0.014 21.429 C -0.014 22.842 1.181 23.986 2.656 23.986 L 21.344 23.986 C 22.819 23.986 24.014 22.842 24.014 21.429 L 24.014 3.522 C 24.014 2.108 22.819 0.964 21.344 0.964 L 2.656 0.964 C 1.181 0.964 -0.014 2.108 -0.014 3.522 Z M 7.018 4.801 L 10.324 4.801 L 10.348 10.359 L 10.82 9.953 C 11.481 9.396 12.036 9.199 13.088 9.162 C 13.78 9.143 14.062 9.17 14.547 9.335 C 15.611 9.676 16.362 10.377 16.753 11.411 C 16.905 11.817 16.926 12.239 16.953 15.521 L 16.985 19.19 L 13.642 19.19 L 13.642 16.196 C 13.642 13.246 13.634 13.209 13.427 12.85 C 13.133 12.374 12.817 12.157 12.316 12.104 C 11.465 12.014 10.873 12.291 10.537 12.959 C 10.377 13.266 10.357 13.588 10.349 16.178 C 10.337 17.759 10.317 19.157 10.317 19.191 L 7.024 19.191 L 7.024 11.997 L 7.018 4.801 Z"/>
</svg>